<svg viewBox="0 0 100 100" xmlns="http://www.w3.org/2000/svg">
  <defs>
    <linearGradient id="coding-grad" x1="0%" y1="0%" x2="100%" y2="100%">
      <stop offset="0%" stop-color="#6C63FF" />
      <stop offset="100%" stop-color="#4ECDC4" />
    </linearGradient>
  </defs>
  <rect x="10" y="10" width="80" height="80" rx="5" fill="white" stroke="#eee" stroke-width="1" />
  <rect x="15" y="15" width="70" height="10" rx="2" fill="#f0f0f0" />
  <circle cx="20" cy="20" r="2" fill="#FF6B6B" />
  <circle cx="25" cy="20" r="2" fill="#FFD166" />
  <circle cx="30" cy="20" r="2" fill="#4ECDC4" />
  <path d="M20 35 H 80" stroke="#eee" stroke-width="1" />
  <path d="M20 40 H 70" stroke="#eee" stroke-width="1" />
  <path d="M20 45 H 60" stroke="#eee" stroke-width="1" />
  <path d="M25 55 H 40" stroke="#6C63FF" stroke-width="2" />
  <path d="M45 55 H 65" stroke="#FF6B6B" stroke-width="2" />
  <path d="M25 65 H 50" stroke="#4ECDC4" stroke-width="2" />
  <path d="M55 65 H 75" stroke="#6C63FF" stroke-width="2" />
  <path d="M25 75 H 35" stroke="#FF6B6B" stroke-width="2" />
  <path d="M40 75 H 55" stroke="#4ECDC4" stroke-width="2" />
  <path d="M60 75 H 80" stroke="#6C63FF" stroke-width="2" />
  <path d="M15 90 L 25 80" stroke="#eee" stroke-width="1" />
  <path d="M20 90 L 30 80" stroke="#eee" stroke-width="1" />
  <path d="M25 90 L 35 80" stroke="#eee" stroke-width="1" />
  <path d="M75 80 L 85 90" stroke="#eee" stroke-width="1" />
  <path d="M70 80 L 80 90" stroke="#eee" stroke-width="1" />
  <path d="M65 80 L 75 90" stroke="#eee" stroke-width="1" />
</svg>
