<svg viewBox="0 0 100 100" xmlns="http://www.w3.org/2000/svg">
  <defs>
    <linearGradient id="creative-grad" x1="0%" y1="0%" x2="100%" y2="100%">
      <stop offset="0%" stop-color="#FF6B6B" />
      <stop offset="100%" stop-color="#FFD166" />
    </linearGradient>
  </defs>
  <path d="M10 50 C 20 30, 40 10, 60 10 S 90 30, 90 50 S 80 90, 50 90 S 10 70, 10 50 Z" fill="white" stroke="url(#creative-grad)" stroke-width="2" />
  <path d="M25 30 Q 35 25, 45 30 T 65 30" stroke="#6C63FF" fill="none" stroke-width="2" />
  <path d="M20 70 Q 35 75, 50 70 T 80 70" stroke="#4ECDC4" fill="none" stroke-width="2" />
  <path d="M30 50 A 20 20 0 1 1 70 50" stroke="#FF6B6B" fill="none" stroke-width="2" />
  <circle cx="30" cy="30" r="5" fill="#FFD166" />
  <circle cx="70" cy="30" r="5" fill="#FFD166" />
  <circle cx="40" cy="70" r="5" fill="#6C63FF" />
  <circle cx="60" cy="70" r="5" fill="#6C63FF" />
  <path d="M30 30 Q 40 50, 50 30" stroke="#4ECDC4" fill="none" stroke-width="1" />
  <path d="M50 30 Q 60 50, 70 30" stroke="#4ECDC4" fill="none" stroke-width="1" />
  <path d="M35 40 Q 50 60, 65 40" stroke="#FF6B6B" fill="none" stroke-width="1" />
</svg>
