<svg viewBox="0 0 100 100" xmlns="http://www.w3.org/2000/svg">
  <defs>
    <linearGradient id="techGrad" x1="0%" y1="0%" x2="100%" y2="100%">
      <stop offset="0%" stop-color="#6C63FF" />
      <stop offset="100%" stop-color="#FF6584" />
    </linearGradient>
  </defs>
  <circle cx="50" cy="50" r="45" fill="white" stroke="url(#techGrad)" stroke-width="2" />
  <path d="M30 40 Q 40 20, 50 40 T 70 40" stroke="#6C63FF" fill="none" stroke-width="2" />
  <path d="M30 60 Q 50 80, 70 60" stroke="#6C63FF" fill="none" stroke-width="2" />
  <path d="M40 30 L 45 35 L 40 40" stroke="#FF6584" fill="none" stroke-width="2" />
  <path d="M60 30 L 55 35 L 60 40" stroke="#FF6584" fill="none" stroke-width="2" />
  <path d="M25 50 Q 35 55, 45 55 T 65 55 T 75 50" stroke="#4ECDC4" fill="none" stroke-width="2" />
  <circle cx="35" cy="35" r="5" fill="#6C63FF" />
  <circle cx="65" cy="35" r="5" fill="#6C63FF" />
  <path d="M10 10 Q 20 15, 30 10 T 50 10 T 70 10 T 90 10" stroke="#FF6B6B22" fill="none" stroke-width="1" />
  <path d="M10 90 Q 30 85, 50 90 T 70 90 T 90 90" stroke="#6C63FF22" fill="none" stroke-width="1" />
  <path d="M10 50 Q 30 45, 50 50 T 70 50 T 90 50" stroke="#4ECDC422" fill="none" stroke-width="1" />
</svg>
